<svg width="32" height="32" viewBox="0 0 32 32" fill="none" xmlns="http://www.w3.org/2000/svg">
<rect width="32" height="32" rx="4" fill="#09090B"/>
<path d="M19.325 17.8C20.275 18.9 21.275 20.0917 22.325 21.375C23.3917 22.6583 24.4167 23.8667 25.4 25H22.3C21.8167 25 21.375 24.8333 20.975 24.5V24.525L20.6 24.1V24.075C19.8 23.125 17.1917 20.0583 12.775 14.875C16.525 14.8583 18.4 14.85 18.4 14.85C18.9833 14.85 19.4833 14.6583 19.9 14.275C20.3167 13.8917 20.525 13.425 20.525 12.875C20.525 12.3417 20.3167 11.8833 19.9 11.5C19.4833 11.1167 18.9833 10.925 18.4 10.925C15.1 10.925 11.825 10.925 8.575 10.925C8.025 10.925 7.55833 10.7417 7.175 10.375C6.79167 9.99167 6.6 9.53333 6.6 9V7.9H18.25C19.8 7.88333 21.0833 8.375 22.1 9.375C23.1167 10.3583 23.625 11.5333 23.625 12.9C23.6083 14.1 23.1917 15.1667 22.375 16.1C21.5583 17.0333 20.5417 17.6 19.325 17.8Z" fill="#673DFF"/>
</svg>
