<svg width="26" height="26" viewBox="0 0 26 26" fill="none" xmlns="http://www.w3.org/2000/svg">
<path d="M17.5984 15.0529C18.9122 16.7254 20.2952 18.5373 21.7473 20.4884C23.2226 22.4396 24.6401 24.2769 26 26H21.7128C21.0444 26 20.4335 25.7465 19.8803 25.2398V25.2778L19.3617 24.6316V24.5936C18.2553 23.1492 14.6481 18.4865 8.53989 10.6056C13.7261 10.5803 16.3191 10.5676 16.3191 10.5676C17.1258 10.5676 17.8173 10.2762 18.3936 9.69337C18.9699 9.11055 19.258 8.40101 19.258 7.56477C19.258 6.75388 18.9699 6.057 18.3936 5.47418C17.8173 4.89135 17.1258 4.59993 16.3191 4.59993C11.7553 4.59993 7.22606 4.59993 2.73138 4.59993C1.97074 4.59993 1.32535 4.32119 0.795213 3.76369C0.265071 3.18086 0 2.48399 0 1.6731V0.000623224H16.1117C18.2553 -0.0247193 20.0301 0.722828 21.4362 2.24326C22.8422 3.73835 23.5452 5.52485 23.5452 7.60278C23.5221 9.4273 22.946 11.0491 21.8165 12.4682C20.687 13.8872 19.2811 14.7488 17.5984 15.0529Z" fill="#7751FF"/>
</svg>
